<?xml version="1.0" encoding="utf-8"?>
<!-- Generator: Adobe Illustrator 14.0.0, SVG Export Plug-In . SVG Version: 6.00 Build 43363)  -->
<!DOCTYPE svg PUBLIC "-//W3C//DTD SVG 1.1//EN" "http://www.w3.org/Graphics/SVG/1.1/DTD/svg11.dtd">
<svg version="1.1" id="Layer_1" xmlns="http://www.w3.org/2000/svg" xmlns:xlink="http://www.w3.org/1999/xlink" x="0px" y="0px"
	 width="595.276px" height="419.528px" viewBox="0 0 595.276 419.528" enable-background="new 0 0 595.276 419.528"
	 xml:space="preserve">
<g>
	<defs>
		<rect id="SVGID_1_" width="595.276" height="419.528"/>
	</defs>
	<clipPath id="SVGID_2_">
		<use xlink:href="#SVGID_1_"  overflow="visible"/>
	</clipPath>
	<path clip-path="url(#SVGID_2_)" fill="#D5B170" d="M136.868,201.098l8.36-14.681c0.136-0.241,0.388-0.376,0.646-0.376l9.431-0.002
		h0.014l26.13,0.002c0.258,0,0.51,0.135,0.647,0.376l8.359,14.681c0.174,0.266,0.163,0.624-0.049,0.881l-26.17,31.689
		c-0.001-0.001-0.021,0.023-0.024,0.026c-0.31,0.339-0.839,0.313-1.122-0.027l-26.172-31.688
		C136.705,201.722,136.695,201.364,136.868,201.098 M188.931,201.426l-7.913-13.897h-25.264l-7.842,13.99l15.888,30.339
		L188.931,201.426z M146.305,187.529l-7.913,13.897l21.306,25.799l-13.262-25.324c-0.14-0.224-0.157-0.515-0.019-0.76l7.631-13.612
		H146.305z"/>
	<path clip-path="url(#SVGID_2_)" fill="#808285" d="M168.228,194.68c0.386,0,0.7,0.313,0.7,0.7c0,0.387-0.314,0.7-0.7,0.7
		l-2.409-0.003l-2.316-0.004h-0.022h-0.02l-0.042,0.001h-0.021h-0.017h-0.004h-0.021l-0.02,0.001h-0.021h-0.021l-0.021,0.001
		c-0.514,0.009-0.992,0.052-1.432,0.124l-0.182,0.024v0.008c-1.58,0.294-2.663,0.967-3.209,1.755
		c-0.247,0.358-0.375,0.733-0.379,1.093c-0.005,0.353,0.111,0.707,0.349,1.032c0.54,0.736,1.669,1.322,3.449,1.505l0.055,1.409
		c-2.338-0.208-3.865-1.034-4.636-2.084c-0.423-0.575-0.626-1.219-0.619-1.873c0.008-0.645,0.22-1.29,0.627-1.878
		c0.97-1.402,3.096-2.524,6.207-2.519L168.228,194.68z M165.504,201.917c1.373,0.343,2.344,1.013,2.886,1.803
		c0.341,0.499,0.519,1.049,0.528,1.608c0.009,0.561-0.153,1.118-0.489,1.625c-0.629,0.949-1.889,1.733-3.799,2.003l-0.169,0.022
		c-0.237,0.03-0.475,0.047-0.712,0.063c-0.085,0.005-0.17,0.009-0.258,0.012v0.001c-0.367,0.025-0.701,0.07-1.005,0.13l-0.322,0.056
		l0.001,0.015c-0.939,0.238-1.526,0.639-1.81,1.097c-0.138,0.22-0.198,0.456-0.186,0.684c0.011,0.237,0.099,0.481,0.256,0.707
		c0.34,0.492,0.982,0.899,1.879,1.073l0.055,1.434c-1.447-0.206-2.513-0.878-3.087-1.71c-0.307-0.443-0.48-0.937-0.504-1.438
		c-0.025-0.51,0.102-1.021,0.395-1.492c0.537-0.864,1.651-1.591,3.422-1.866l0.141-0.02c0.098-0.013,0.194-0.026,0.293-0.037
		l0.009-0.001l0.011-0.001l0.011-0.001l0.01-0.001l0.042-0.004l0.01-0.001l0.116-0.011l0.01-0.001l0.011-0.001l0.01-0.001h0.011
		l0.031-0.003l0.011-0.001l0.01-0.001h0.011l0.01-0.001l0.011-0.001l0.01-0.001l0.011-0.001l0.01-0.001h0.011h0.001v0.001
		l0.028-0.002h0.001c0.586-0.016,1.107-0.079,1.565-0.179l0.217-0.04l0.001-0.012c1.023-0.261,1.701-0.716,2.049-1.243
		c0.178-0.267,0.263-0.551,0.259-0.828c-0.004-0.28-0.101-0.567-0.287-0.839c-0.334-0.487-0.937-0.91-1.802-1.168L165.504,201.917z
		 M164.897,213.205c0.522,0.221,0.938,0.553,1.241,0.958c0.345,0.463,0.537,1.018,0.571,1.608c0.031,0.563-0.084,1.161-0.35,1.738
		l-0.001,0.002l0.001,0.001c-0.577,1.255-1.882,2.438-3.949,2.97c-0.375,0.096-0.757-0.131-0.852-0.506
		c-0.095-0.374,0.131-0.756,0.506-0.852c0.166-0.043,0.326-0.091,0.479-0.143l0.003,0.08l0.704-0.374
		c0.235-0.117,0.45-0.246,0.644-0.384l0.019-0.014l0.01-0.008l0.008-0.006l0.019-0.014l0.018-0.013l0.004-0.003
		c0.196-0.145,0.38-0.306,0.55-0.49l0.139-0.149v-0.013c0.177-0.217,0.319-0.443,0.423-0.671h0.002
		c0.167-0.365,0.241-0.735,0.222-1.075c-0.018-0.314-0.118-0.606-0.297-0.846c-0.057-0.077-0.123-0.148-0.199-0.216L164.897,213.205
		z"/>
	<path clip-path="url(#SVGID_2_)" fill-rule="evenodd" clip-rule="evenodd" fill="#808285" d="M163.94,220.533l-0.137,2.552
		c-0.022,0.345-0.516,0.344-0.537-0.004l-0.088-2.242C163.438,220.75,163.692,220.648,163.94,220.533"/>
	<path clip-path="url(#SVGID_2_)" fill-rule="evenodd" clip-rule="evenodd" fill="#808285" d="M164.841,203.778l-0.121,2.251
		l-0.05,0.931c-0.454,0.084-0.899,0.12-1.261,0.13h-0.031l-0.019,0.001c-0.233,0.016-0.471,0.041-0.712,0.075l-0.138-3.54
		l-0.269-6.91c0.446-0.058,0.877-0.081,1.261-0.08l1.724,0.002L164.841,203.778z"/>
	<path clip-path="url(#SVGID_2_)" fill-rule="evenodd" clip-rule="evenodd" fill="#808285" d="M165.387,193.626l-0.026,0.486
		l-1.858-0.003c-0.441-0.001-0.899,0.023-1.361,0.075l-0.015-0.399C162.001,190.553,165.608,191.222,165.387,193.626"/>
	<path clip-path="url(#SVGID_2_)" fill-rule="evenodd" clip-rule="evenodd" fill="#808285" d="M163.457,220.738l0.08,2.063
		l0.115-2.142C163.586,220.686,163.521,220.712,163.457,220.738"/>
	<path clip-path="url(#SVGID_2_)" fill-rule="evenodd" clip-rule="evenodd" fill="#808285" d="M164.11,217.375
		c0.141-2.613,0.281-5.227,0.421-7.84c-0.601,0.076-1.185,0.068-1.785,0.173c0.11,2.813,0.219,5.625,0.328,8.438
		C163.464,217.938,163.807,217.704,164.11,217.375"/>
	<path clip-path="url(#SVGID_2_)" fill="#D5B170" d="M457.291,194.814l-1.725,1.324c-0.949-1.238-2.09-2.177-3.424-2.815
		c-1.329-0.64-2.791-0.96-4.389-0.96c-1.74,0-3.354,0.422-4.84,1.259s-2.633,1.963-3.449,3.374c-0.817,1.41-1.229,3.003-1.229,4.763
		c0,2.668,0.914,4.895,2.74,6.676c1.826,1.787,4.13,2.678,6.914,2.678c3.06,0,5.616-1.197,7.676-3.591l1.725,1.309
		c-1.09,1.385-2.449,2.46-4.078,3.216s-3.45,1.137-5.459,1.137c-3.825,0-6.844-1.273-9.051-3.821
		c-1.851-2.146-2.779-4.743-2.779-7.781c0-3.197,1.121-5.891,3.363-8.072c2.247-2.186,5.058-3.277,8.437-3.277
		c2.039,0,3.881,0.401,5.524,1.203C454.891,192.243,456.241,193.369,457.291,194.814 M429.745,190.781h2.19v21.855h-2.19V190.781z
		 M407.565,212.636v-21.855h0.472l14.533,16.715v-16.715h2.193v21.855h-0.498l-14.448-16.569v16.569H407.565z M400.351,190.781
		h2.191v21.855h-2.191V190.781z M386.598,190.781h2.191v19.724h8.432v2.131h-10.623V190.781z M382.215,194.814l-1.726,1.324
		c-0.948-1.238-2.09-2.177-3.424-2.815c-1.33-0.64-2.791-0.96-4.389-0.96c-1.739,0-3.354,0.422-4.84,1.259s-2.633,1.963-3.449,3.374
		c-0.818,1.41-1.228,3.003-1.228,4.763c0,2.668,0.913,4.895,2.739,6.676c1.826,1.787,4.129,2.678,6.915,2.678
		c3.059,0,5.615-1.197,7.675-3.591l1.726,1.309c-1.091,1.385-2.45,2.46-4.079,3.216s-3.45,1.137-5.459,1.137
		c-3.825,0-6.843-1.273-9.05-3.821c-1.852-2.146-2.78-4.743-2.78-7.781c0-3.197,1.121-5.891,3.363-8.072
		c2.248-2.186,5.058-3.277,8.437-3.277c2.039,0,3.881,0.401,5.524,1.203C379.816,192.243,381.165,193.369,382.215,194.814"/>
	<path clip-path="url(#SVGID_2_)" fill="#808285" d="M336.04,194.799v13.788h1.927c1.903,0,3.278-0.218,4.136-0.654
		c0.857-0.437,1.558-1.172,2.101-2.202c0.543-1.03,0.816-2.298,0.816-3.81c0-2.318-0.649-4.119-1.943-5.397
		c-1.166-1.152-3.043-1.725-5.625-1.725H336.04z M331.9,190.781h4.926c3.176,0,5.535,0.396,7.083,1.182
		c1.542,0.786,2.815,2.065,3.814,3.84c0.999,1.771,1.497,3.841,1.497,6.21c0,1.684-0.279,3.231-0.838,4.642
		c-0.558,1.41-1.335,2.582-2.318,3.515c-0.984,0.929-2.049,1.573-3.196,1.933c-1.146,0.355-3.135,0.533-5.966,0.533H331.9V190.781z
		 M309.386,190.781h3.947l9.415,14.382v-14.382h4.14v21.855h-3.978l-9.385-14.336v14.336h-4.14V190.781z M294.035,194.312
		c-2.014,0-3.708,0.705-5.078,2.11c-1.375,1.406-2.06,3.191-2.06,5.362c0,2.415,0.862,4.328,2.592,5.733
		c1.345,1.101,2.882,1.649,4.622,1.649c1.963,0,3.638-0.716,5.018-2.141c1.385-1.426,2.075-3.181,2.075-5.271
		c0-2.08-0.696-3.84-2.091-5.281C297.723,195.032,296.029,194.312,294.035,194.312 M294.096,190.234c3.089,0,5.748,1.121,7.97,3.358
		c2.227,2.237,3.338,4.966,3.338,8.182c0,3.191-1.096,5.89-3.293,8.097c-2.191,2.208-4.854,3.313-7.985,3.313
		c-3.282,0-6.006-1.137-8.173-3.404c-2.171-2.268-3.257-4.962-3.257-8.082c0-2.085,0.508-4.007,1.518-5.763
		c1.009-1.75,2.399-3.14,4.165-4.165C290.149,190.745,292.057,190.234,294.096,190.234 M258.498,190.781h4.033l5.089,15.245
		l5.113-15.245h4.024l3.662,21.855h-4.013l-2.334-13.804l-4.626,13.804h-3.673l-4.606-13.804l-2.38,13.804h-4.058L258.498,190.781z
		 M242.671,196.59l-2.963,7.523h5.91L242.671,196.59z M240.57,190.781h4.19l8.412,21.855h-4.328l-1.704-4.505h-8.96l-1.744,4.505
		h-4.328L240.57,190.781z M225.067,190.781h4.14v21.855h-4.14V190.781z M208.229,194.799v13.788h1.928
		c1.903,0,3.277-0.218,4.135-0.654c0.857-0.437,1.557-1.172,2.1-2.202c0.543-1.03,0.817-2.298,0.817-3.81
		c0-2.318-0.65-4.119-1.943-5.397c-1.167-1.152-3.044-1.725-5.626-1.725H208.229z M204.09,190.781h4.926
		c3.175,0,5.534,0.396,7.082,1.182c1.542,0.786,2.815,2.065,3.814,3.84c1,1.771,1.497,3.841,1.497,6.21
		c0,1.684-0.279,3.231-0.837,4.642c-0.558,1.41-1.334,2.582-2.318,3.515c-0.985,0.929-2.05,1.573-3.196,1.933
		c-1.147,0.355-3.135,0.533-5.967,0.533h-5.001V190.781z"/>
	<path clip-path="url(#SVGID_2_)" fill="#808285" d="M203.932,227.947l0.719-0.432c0.506,0.935,1.092,1.402,1.755,1.402
		c0.285,0,0.552-0.066,0.802-0.198c0.249-0.132,0.44-0.311,0.569-0.532c0.132-0.221,0.196-0.458,0.196-0.707
		c0-0.283-0.096-0.56-0.288-0.833c-0.265-0.375-0.748-0.828-1.453-1.356c-0.707-0.533-1.147-0.919-1.32-1.157
		c-0.301-0.398-0.45-0.83-0.45-1.293c0-0.368,0.089-0.704,0.265-1.007c0.177-0.302,0.426-0.539,0.748-0.714
		c0.323-0.175,0.67-0.262,1.047-0.262c0.401,0,0.776,0.099,1.123,0.297c0.348,0.196,0.717,0.561,1.106,1.088l-0.691,0.524
		c-0.32-0.422-0.593-0.701-0.819-0.835c-0.226-0.136-0.471-0.202-0.736-0.202c-0.344,0-0.625,0.104-0.843,0.311
		c-0.218,0.208-0.328,0.461-0.328,0.766c0,0.183,0.039,0.361,0.116,0.535c0.077,0.172,0.218,0.358,0.422,0.563
		c0.11,0.105,0.477,0.389,1.098,0.845c0.734,0.542,1.239,1.022,1.512,1.443c0.273,0.422,0.41,0.847,0.41,1.273
		c0,0.611-0.233,1.146-0.699,1.597c-0.467,0.454-1.034,0.68-1.702,0.68c-0.515,0-0.982-0.137-1.4-0.412
		C204.672,229.055,204.285,228.593,203.932,227.947 M211.65,221.07h1.687c0.967,0,1.62,0.041,1.958,0.126
		c0.483,0.12,0.878,0.363,1.184,0.734c0.308,0.369,0.461,0.835,0.461,1.395c0,0.563-0.149,1.027-0.449,1.394
		c-0.299,0.366-0.711,0.611-1.235,0.739c-0.385,0.092-1.102,0.137-2.153,0.137h-0.605v3.936h-0.848V221.07z M212.498,221.895v2.875
		l1.434,0.018c0.58,0,1.003-0.053,1.272-0.159s0.482-0.274,0.635-0.511c0.153-0.234,0.229-0.501,0.229-0.791
		c0-0.283-0.076-0.544-0.229-0.78c-0.153-0.235-0.358-0.402-0.609-0.502c-0.251-0.101-0.662-0.149-1.235-0.149H212.498z
		 M219.614,221.07h4.842v0.825h-3.994v2.651h3.959v0.824h-3.959v3.334h3.959v0.825h-4.807V221.07z M234.78,222.632l-0.668,0.512
		c-0.367-0.479-0.808-0.843-1.325-1.09c-0.515-0.248-1.08-0.371-1.699-0.371c-0.673,0-1.298,0.163-1.873,0.486
		c-0.576,0.324-1.019,0.761-1.335,1.307c-0.317,0.546-0.475,1.162-0.475,1.844c0,1.033,0.353,1.896,1.06,2.584
		c0.707,0.691,1.598,1.037,2.676,1.037c1.185,0,2.174-0.463,2.971-1.391l0.668,0.507c-0.422,0.536-0.948,0.952-1.579,1.245
		c-0.63,0.293-1.335,0.439-2.113,0.439c-1.48,0-2.649-0.492-3.503-1.479c-0.717-0.83-1.076-1.836-1.076-3.012
		c0-1.237,0.434-2.28,1.302-3.125c0.87-0.846,1.957-1.269,3.265-1.269c0.79,0,1.503,0.155,2.139,0.466
		C233.851,221.636,234.374,222.072,234.78,222.632 M240.236,221.07h0.849v5.711c0,0.878-0.069,1.488-0.205,1.832
		c-0.137,0.342-0.363,0.617-0.683,0.821c-0.318,0.206-0.705,0.308-1.157,0.308c-0.341,0-0.679-0.066-1.011-0.198
		s-0.701-0.363-1.103-0.697l0.447-0.671c0.444,0.309,0.811,0.526,1.104,0.651c0.192,0.085,0.381,0.126,0.565,0.126
		c0.242,0,0.462-0.072,0.66-0.218c0.198-0.145,0.338-0.34,0.416-0.581c0.079-0.242,0.118-0.709,0.118-1.402V221.07z M247.577,221.07
		l3.947,8.46h-0.908l-1.322-2.78h-3.667l-1.313,2.78h-0.943l3.994-8.46H247.577z M247.472,222.845l-1.456,3.079h2.905
		L247.472,222.845z M253.807,221.07h0.848v7.635h3.264v0.825h-4.112V221.07z M260.11,221.07h0.848v8.46h-0.848V221.07z
		 M262.996,227.947l0.72-0.432c0.506,0.935,1.091,1.402,1.755,1.402c0.285,0,0.552-0.066,0.801-0.198
		c0.25-0.132,0.44-0.311,0.57-0.532c0.131-0.221,0.196-0.458,0.196-0.707c0-0.283-0.096-0.56-0.289-0.833
		c-0.265-0.375-0.748-0.828-1.453-1.356c-0.707-0.533-1.147-0.919-1.32-1.157c-0.3-0.398-0.449-0.83-0.449-1.293
		c0-0.368,0.089-0.704,0.265-1.007c0.177-0.302,0.426-0.539,0.748-0.714c0.322-0.175,0.67-0.262,1.047-0.262
		c0.4,0,0.775,0.099,1.123,0.297c0.348,0.196,0.717,0.561,1.106,1.088l-0.692,0.524c-0.319-0.422-0.592-0.701-0.818-0.835
		c-0.226-0.136-0.472-0.202-0.737-0.202c-0.344,0-0.624,0.104-0.842,0.311c-0.218,0.208-0.328,0.461-0.328,0.766
		c0,0.183,0.039,0.361,0.115,0.535c0.078,0.172,0.218,0.358,0.423,0.563c0.11,0.105,0.477,0.389,1.098,0.845
		c0.734,0.542,1.239,1.022,1.512,1.443c0.273,0.422,0.41,0.847,0.41,1.273c0,0.611-0.234,1.146-0.699,1.597
		c-0.467,0.454-1.035,0.68-1.702,0.68c-0.515,0-0.982-0.137-1.4-0.412C263.737,229.055,263.35,228.593,262.996,227.947
		 M269.877,221.895v-0.825h4.631v0.825h-1.885v7.635h-0.86v-7.635H269.877z M276.051,221.07h0.968l2.187,3.533l2.151-3.533h0.962
		l-2.686,4.415v4.045h-0.848v-4.045L276.051,221.07z M292.545,222.632l-0.668,0.512c-0.367-0.479-0.809-0.843-1.325-1.09
		c-0.515-0.248-1.08-0.371-1.699-0.371c-0.673,0-1.298,0.163-1.873,0.486c-0.576,0.324-1.02,0.761-1.336,1.307
		s-0.475,1.162-0.475,1.844c0,1.033,0.354,1.896,1.061,2.584c0.706,0.691,1.598,1.037,2.676,1.037c1.184,0,2.174-0.463,2.971-1.391
		l0.668,0.507c-0.423,0.536-0.948,0.952-1.579,1.245c-0.63,0.293-1.335,0.439-2.113,0.439c-1.481,0-2.649-0.492-3.503-1.479
		c-0.717-0.83-1.076-1.836-1.076-3.012c0-1.237,0.434-2.28,1.302-3.125c0.87-0.846,1.957-1.269,3.265-1.269
		c0.79,0,1.503,0.155,2.139,0.466C291.616,221.636,292.139,222.072,292.545,222.632 M294.89,221.895v-0.825h4.465l-3.548,7.635
		h3.373v0.825h-4.667l3.562-7.635H294.89z M301.866,229.53v-8.46h0.183l5.626,6.471v-6.471h0.849v8.46h-0.192l-5.593-6.413v6.413
		H301.866z M311.559,221.07h4.843v0.825h-3.994v2.651h3.959v0.824h-3.959v3.334h3.959v0.825h-4.808V221.07z M323.083,221.07h1.688
		c0.966,0,1.619,0.041,1.957,0.126c0.483,0.12,0.878,0.363,1.185,0.734c0.31,0.369,0.461,0.835,0.461,1.395
		c0,0.563-0.148,1.027-0.449,1.394c-0.299,0.366-0.711,0.611-1.235,0.739c-0.385,0.092-1.102,0.137-2.152,0.137h-0.604v3.936h-0.849
		V221.07z M323.932,221.895v2.875l1.434,0.018c0.579,0,1.003-0.053,1.273-0.159c0.268-0.106,0.48-0.274,0.633-0.511
		c0.153-0.234,0.23-0.501,0.23-0.791c0-0.283-0.077-0.544-0.23-0.78c-0.152-0.235-0.357-0.402-0.608-0.502
		c-0.251-0.101-0.662-0.149-1.235-0.149H323.932z M335.069,220.858c1.28,0,2.353,0.429,3.215,1.282
		c0.862,0.854,1.294,1.907,1.294,3.156c0,1.238-0.43,2.29-1.29,3.151c-0.862,0.862-1.911,1.294-3.148,1.294
		c-1.255,0-2.313-0.43-3.175-1.288s-1.294-1.896-1.294-3.116c0-0.813,0.196-1.565,0.589-2.26c0.393-0.693,0.929-1.236,1.608-1.63
		C333.545,221.054,334.28,220.858,335.069,220.858 M335.106,221.683c-0.624,0-1.217,0.163-1.778,0.488
		c-0.561,0.326-0.998,0.765-1.313,1.316c-0.314,0.554-0.472,1.168-0.472,1.848c0,1.005,0.348,1.852,1.044,2.543
		c0.697,0.693,1.538,1.039,2.52,1.039c0.658,0,1.265-0.159,1.822-0.478c0.561-0.317,0.996-0.754,1.309-1.306
		c0.312-0.552,0.469-1.164,0.469-1.84c0-0.672-0.157-1.278-0.469-1.82c-0.313-0.542-0.754-0.977-1.321-1.303
		C336.347,221.846,335.745,221.683,335.106,221.683 M342.302,221.07h1.688c0.941,0,1.579,0.039,1.913,0.116
		c0.505,0.114,0.913,0.359,1.228,0.738c0.315,0.377,0.473,0.843,0.473,1.395c0,0.459-0.107,0.864-0.326,1.212
		c-0.216,0.349-0.525,0.612-0.931,0.791c-0.402,0.179-0.959,0.27-1.671,0.272l3.046,3.936h-1.039l-3.045-3.936h-0.488v3.936h-0.848
		V221.07z M343.15,221.895v2.875l1.462,0.012c0.567,0,0.985-0.053,1.257-0.161c0.271-0.107,0.482-0.279,0.636-0.515
		c0.151-0.235,0.228-0.499,0.228-0.791c0-0.283-0.076-0.542-0.231-0.774c-0.153-0.231-0.355-0.396-0.606-0.496
		c-0.25-0.101-0.666-0.149-1.247-0.149H343.15z M353.85,221.07l3.946,8.46h-0.907l-1.323-2.78H351.9l-1.314,2.78h-0.942l3.995-8.46
		H353.85z M353.744,222.845l-1.455,3.079h2.904L353.744,222.845z M360.08,229.53v-8.46h1.756c1.264,0,2.184,0.103,2.755,0.305
		c0.82,0.289,1.463,0.785,1.924,1.496c0.462,0.709,0.693,1.554,0.693,2.535c0,0.849-0.183,1.593-0.55,2.237
		c-0.365,0.644-0.843,1.121-1.426,1.428c-0.585,0.306-1.406,0.459-2.461,0.459H360.08z M360.892,228.729h0.977
		c1.166,0,1.974-0.073,2.425-0.218c0.635-0.209,1.135-0.58,1.498-1.117c0.363-0.541,0.544-1.198,0.544-1.977
		c0-0.814-0.196-1.514-0.591-2.091c-0.393-0.579-0.942-0.977-1.646-1.19c-0.528-0.161-1.398-0.241-2.61-0.241h-0.597V228.729z
		 M369.837,229.53v-8.46h0.183l5.626,6.471v-6.471h0.849v8.46h-0.192l-5.593-6.413v6.413H369.837z M379.402,221.07h0.849v8.46
		h-0.849V221.07z M383.173,221.07h4.842v0.825h-3.994v2.651h3.959v0.824h-3.959v3.334h3.959v0.825h-4.807V221.07z M394.698,221.07
		h0.848v7.635h3.264v0.825h-4.111V221.07z M401.129,221.07h4.843v0.825h-3.994v2.651h3.959v0.824h-3.959v3.334h3.959v0.825h-4.808
		V221.07z M408.414,221.07h0.86v3.174l3.391-3.174h1.14l-4.077,3.794l4.395,4.666h-1.129l-3.719-3.95v3.95h-0.86V221.07z
		 M419.818,221.07l3.946,8.46h-0.908l-1.322-2.78h-3.666l-1.313,2.78h-0.943l3.994-8.46H419.818z M419.711,222.845l-1.455,3.079
		h2.904L419.711,222.845z M426.094,221.07h1.688c0.941,0,1.579,0.039,1.913,0.116c0.505,0.114,0.913,0.359,1.228,0.738
		c0.316,0.377,0.473,0.843,0.473,1.395c0,0.459-0.107,0.864-0.326,1.212c-0.216,0.349-0.525,0.612-0.93,0.791
		c-0.403,0.179-0.961,0.27-1.672,0.272l3.046,3.936h-1.039l-3.046-3.936h-0.486v3.936h-0.849V221.07z M426.943,221.895v2.875
		l1.461,0.012c0.568,0,0.985-0.053,1.257-0.161c0.271-0.107,0.482-0.279,0.636-0.515c0.151-0.235,0.229-0.499,0.229-0.791
		c0-0.283-0.077-0.542-0.232-0.774c-0.152-0.231-0.355-0.396-0.606-0.496c-0.25-0.101-0.666-0.149-1.247-0.149H426.943z
		 M433.306,227.947l0.719-0.432c0.506,0.935,1.092,1.402,1.755,1.402c0.285,0,0.552-0.066,0.802-0.198
		c0.249-0.132,0.439-0.311,0.569-0.532c0.132-0.221,0.196-0.458,0.196-0.707c0-0.283-0.096-0.56-0.289-0.833
		c-0.265-0.375-0.748-0.828-1.453-1.356c-0.706-0.533-1.146-0.919-1.319-1.157c-0.301-0.398-0.449-0.83-0.449-1.293
		c0-0.368,0.088-0.704,0.265-1.007c0.177-0.302,0.426-0.539,0.748-0.714s0.67-0.262,1.047-0.262c0.4,0,0.775,0.099,1.123,0.297
		c0.348,0.196,0.717,0.561,1.105,1.088l-0.691,0.524c-0.319-0.422-0.593-0.701-0.818-0.835c-0.226-0.136-0.472-0.202-0.736-0.202
		c-0.344,0-0.624,0.104-0.843,0.311c-0.218,0.208-0.327,0.461-0.327,0.766c0,0.183,0.039,0.361,0.115,0.535
		c0.077,0.172,0.218,0.358,0.422,0.563c0.11,0.105,0.478,0.389,1.098,0.845c0.734,0.542,1.239,1.022,1.513,1.443
		c0.272,0.422,0.41,0.847,0.41,1.273c0,0.611-0.233,1.146-0.699,1.597c-0.467,0.454-1.034,0.68-1.702,0.68
		c-0.515,0-0.982-0.137-1.4-0.412C434.046,229.055,433.66,228.593,433.306,227.947 M441.024,221.07h0.86v3.174l3.392-3.174h1.139
		l-4.077,3.794l4.396,4.666h-1.129l-3.72-3.95v3.95h-0.86V221.07z M448.847,221.07h0.849v8.46h-0.849V221.07z M452.618,221.07h4.842
		v0.825h-3.994v2.651h3.959v0.824h-3.959v3.334h3.959v0.825h-4.807V221.07z"/>
</g>
</svg>
